<?xml version="1.0" standalone="no"?>
<!DOCTYPE svg PUBLIC "-//W3C//DTD SVG 20010904//EN"
 "http://www.w3.org/TR/2001/REC-SVG-20010904/DTD/svg10.dtd">
<svg version="1.0" xmlns="http://www.w3.org/2000/svg"
 width="700.000000pt" height="700.000000pt" viewBox="0 0 700.000000 700.000000"
 preserveAspectRatio="xMidYMid meet">
<metadata>
Created by potrace 1.11, written by Peter Selinger 2001-2013
</metadata>
<g transform="translate(0.000000,700.000000) scale(0.100000,-0.100000)"
fill="#000000" stroke="none">
<path d="M600 6985 c-290 -59 -515 -284 -585 -585 -13 -57 -14 -415 -12 -2925
2 -2713 3 -2863 20 -2918 87 -285 319 -499 592 -545 22 -4 1327 -7 2900 -7
2654 0 2864 1 2921 17 166 46 341 167 423 293 14 22 28 42 32 45 17 15 72 152
89 223 19 80 19 139 17 2942 -3 3137 3 2870 -59 3021 -92 224 -319 402 -564
443 -37 6 -1097 10 -2884 9 -2297 0 -2837 -2 -2890 -13z m4158 -1499 c74 -17
124 -58 383 -316 146 -146 279 -285 296 -310 42 -63 57 -113 57 -200 1 -81
-15 -144 -51 -202 -29 -48 -428 -448 -448 -449 -8 -1 -22 -1 -30 -1 -8 0 -23
0 -32 1 -27 2 -911 890 -923 927 -7 21 -7 40 0 58 12 32 396 417 451 452 76
47 194 64 297 40z m-929 -751 c14 -7 228 -216 475 -464 l449 -450 -6 -41 c-5
-40 -55 -91 -1073 -1110 -943 -944 -1072 -1070 -1103 -1074 -20 -3 -63 -8 -96
-11 -33 -4 -76 -8 -95 -10 -19 -3 -57 -7 -85 -10 -27 -3 -61 -8 -75 -10 -14
-2 -61 -7 -105 -11 -44 -3 -88 -8 -98 -10 -10 -2 -46 -6 -80 -9 -35 -3 -89
-10 -122 -15 -33 -4 -90 -7 -127 -6 -75 2 -100 15 -152 80 -27 33 -31 45 -31
104 0 37 4 96 8 132 10 90 14 125 22 195 3 33 8 74 10 90 2 17 9 75 15 130 13
125 19 173 25 228 3 23 7 63 9 89 l4 46 1058 1059 c582 582 1068 1065 1080
1073 30 21 61 22 93 5z"/>
</g>
</svg>
